<?xml version="1.0" encoding="utf-8"?>
<!-- Generator: Adobe Illustrator 24.0.0, SVG Export Plug-In . SVG Version: 6.00 Build 0)  -->
<svg version="1.1" id="Layer_1" xmlns="http://www.w3.org/2000/svg" xmlns:xlink="http://www.w3.org/1999/xlink" x="0px" y="0px"
	 width="164px" height="98px" viewBox="0 0 164 98" style="enable-background:new 0 0 164 98;" xml:space="preserve">
<style type="text/css">
	.st0{fill:#FFFFFF;fill-opacity:0;}
	.st1{fill:#B09043;}
	.st2{fill:#672F25;}
</style>
<rect class="st0" width="164" height="98"/>
<g>
	<path class="st1" d="M1.47,83.75V78.6h0.96v5.15H1.47z M21.27,79.84c-0.18-0.29-0.67-0.58-1.22-0.58c-0.72,0-1.07,0.3-1.07,0.69
		c0,0.45,0.53,0.58,1.15,0.65c1.07,0.13,2.07,0.41,2.07,1.64c0,1.15-1.01,1.64-2.17,1.64c-1.05,0-1.86-0.33-2.24-1.27l0.81-0.42
		c0.23,0.56,0.82,0.82,1.45,0.82c0.61,0,1.19-0.21,1.19-0.77c0-0.49-0.51-0.69-1.19-0.76c-1.05-0.13-2.03-0.41-2.03-1.56
		c0-1.06,1.04-1.49,2-1.5c0.8,0,1.63,0.23,2.03,1.02L21.27,79.84z M30.09,82.23h-1.46v1.52h-0.97V78.6c0.81,0,1.62-0.01,2.43-0.01
		C32.6,78.58,32.61,82.23,30.09,82.23z M28.63,81.34h1.46c1.24,0,1.24-1.83,0-1.83h-1.46C28.63,79.51,28.63,81.34,28.63,81.34z
		 M37.34,83.75V78.6h0.96v5.15H37.34z M48.5,83.75h-1.16l-1.5-1.72h-0.93v1.72h-0.97v-5.16c0.82,0,1.64,0.01,2.45,0.01
		c1.22,0.01,1.86,0.81,1.86,1.7c0,0.71-0.32,1.42-1.3,1.62l1.56,1.76L48.5,83.75L48.5,83.75z M44.9,79.5v1.65h1.48
		c0.62,0,0.89-0.41,0.89-0.82c0-0.41-0.27-0.82-0.89-0.82H44.9V79.5z M53.6,83.75V78.6h0.97v5.15H53.6z M73.96,79.85
		c-0.35-0.33-0.86-0.52-1.31-0.52c-1.1,0-1.78,0.84-1.78,1.9c0,0.85,0.49,1.72,1.78,1.72c0.41,0,0.76-0.09,1.16-0.41v-0.92h-1.32
		v-0.87h2.21v2.17c-0.51,0.58-1.15,0.93-2.05,0.93c-1.94,0-2.73-1.28-2.73-2.63c0-1.45,0.91-2.79,2.73-2.79
		c0.69,0,1.38,0.27,1.92,0.79L73.96,79.85z M89.72,80.02l-1.68,2.24h-0.19l-1.64-2.24v3.75h-0.97V78.6h1.12l1.61,2.21l1.61-2.21
		h1.11v5.16h-0.97V80.02L89.72,80.02z M101.37,81.2c-0.02,1.33-0.83,2.67-2.64,2.67s-2.65-1.3-2.65-2.66s0.87-2.72,2.65-2.72
		C100.51,78.49,101.39,79.85,101.37,81.2z M97.04,81.22c0.02,0.85,0.47,1.75,1.69,1.75s1.67-0.92,1.69-1.76
		c0.01-0.87-0.47-1.84-1.69-1.84S97.01,80.35,97.04,81.22z M111.28,80.02l-1.68,2.24h-0.19l-1.64-2.24v3.75h-0.97V78.6h1.12
		l1.61,2.21l1.61-2.21h1.11v5.16h-0.97V80.02L111.28,80.02z M121.71,83.75h-3.86c0-1.72,0-3.43,0-5.15h3.86v0.94h-2.89v1.18h2.79
		v0.9h-2.79v1.16h2.89V83.75z M138.6,79.48h-1.64V78.6c1.49,0,2.75,0,4.24,0v0.88h-1.63v4.27h-0.97V79.48z M151.23,78.6v2.95
		c0,1.52-0.99,2.3-2.28,2.3c-1.24,0-2.35-0.75-2.35-2.3V78.6h0.96v2.95c0,0.93,0.58,1.42,1.38,1.42s1.32-0.54,1.32-1.42V78.6H151.23
		z M161.32,80.02l-1.68,2.24h-0.19l-1.64-2.24v3.75h-0.97V78.6h1.12l1.61,2.21l1.61-2.21h1.11v5.16h-0.97V80.02z M7.8,78.6v5.15
		h0.97v-3.56l3.29,3.57h0.52V78.6h-0.97v3.34L8.55,78.6H7.8L7.8,78.6z M60.1,78.6v5.15h0.97v-3.56l3.29,3.57h0.52V78.6h-0.97v3.34
		l-3.05-3.34H60.1L60.1,78.6z M127.2,78.6v5.15h0.97v-3.56l3.29,3.57h0.52V78.6h-0.97v3.34l-3.06-3.33L127.2,78.6L127.2,78.6z
		 M126.2,23.1l-2.04,2.03l-9.21-9.21l2.03-2.04L126.2,23.1z M140.43,23.1l2.04,2.03l9.21-9.21l-2.04-2.04L140.43,23.1z M126.2,41.35
		l-2.04-2.04l-9.21,9.21l2.03,2.04L126.2,41.35z M149.65,50.57l2.04-2.04l-9.21-9.21l-2.04,2.04L149.65,50.57z M60.99,13.88
		l-2.03,2.04l9.21,9.21l2.04-2.03L60.99,13.88z M84.44,23.1l2.04,2.03l9.21-9.21l-2.03-2.03L84.44,23.1z M70.2,41.35l-2.04-2.04
		l-9.2,9.22l2.03,2.04L70.2,41.35z M93.66,50.57l2.04-2.04l-9.21-9.21l-2.04,2.04L93.66,50.57z M3.27,13.88l-2.04,2.04l9.21,9.21
		l2.04-2.03L3.27,13.88z M26.71,23.1l2.04,2.03l9.21-9.21l-2.04-2.04L26.71,23.1z M12.48,41.35l-2.04-2.04l-9.21,9.21l2.03,2.04
		L12.48,41.35z M35.93,50.57l2.04-2.04l-9.21-9.21l-2.04,2.04L35.93,50.57z"/>
	<path class="st2" d="M23.91,35.11l-1.39,1.36l-2.91-2.89l-2.91,2.89l-1.38-1.38l2.91-2.89l-2.93-2.94l1.38-1.38l2.93,2.93
		l2.91-2.93l1.38,1.39l-2.91,2.93L23.91,35.11z M137.47,32.18c0,2.13-1.73,3.88-3.87,3.88h-4.43v-7.74h4.43
		C135.73,28.31,137.47,30.05,137.47,32.18z M135.53,32.18c0-1.06-0.87-1.92-1.93-1.92h-2.49v3.85h2.49
		C134.67,34.11,135.53,33.24,135.53,32.18z M160.83,28.31v3.88c0,1.06-0.87,1.92-1.93,1.92s-1.92-0.86-1.92-1.92v-3.88h-1.94v3.88
		c0,2.13,1.73,3.87,3.86,3.87s3.87-1.73,3.87-3.87v-3.88C162.77,28.31,160.83,28.31,160.83,28.31z M79.71,28.34v4.93l-4.92-4.93
		h-1.78v7.75h1.94v-4.85l4.84,4.85h1.87v-7.75H79.71z M54.28,35.22l-1.55,1.2l-1.52-1.89h-5.4l-1.52,1.89l-1.55-1.2l5.77-7.25
		L54.28,35.22z M50.24,32.88l-1.73-2.15l-1.73,2.15H50.24z M110.77,35.22l-1.54,1.21l-1.52-1.89h-5.4l-1.52,1.89l-1.55-1.2
		l5.77-7.25L110.77,35.22z M106.75,32.88l-1.73-2.15l-1.73,2.15H106.75z"/>
</g>
</svg>
